
<svg width="15px" height="12px" viewBox="0 0 15 12" version="1.1" xmlns="http://www.w3.org/2000/svg" xmlns:xlink="http://www.w3.org/1999/xlink">
    <defs>
        <path d="M132.500972,1 C136.643013,1 140,3.49375 140,6.57142857 C140,9.64910714 136.643013,12.1428571 132.500972,12.1428571 C131.540159,12.1428571 130.626215,12.0035714 129.779645,11.7598214 C128.927217,12.3116071 127.506502,13 125.704978,13 C125.423764,13 125.168915,12.8473214 125.057601,12.6116071 C124.946287,12.3758929 124.999015,12.1026786 125.192349,11.9151786 C125.206996,11.9044643 126.115081,11.0098214 126.551548,9.95446429 C125.584876,9.01428571 125.001944,7.84642857 125.001944,6.57142857 C125.001944,3.49375 128.358931,1 132.500972,1 Z M133,3 C129.691346,3 127,4.88122271 127,7.19213974 C127,8.29781659 127.625962,9.13362445 128.148077,9.63930131 L128.148077,9.63930131 L128.742308,10.2104803 L128.436538,10.9467249 C128.277885,11.3266376 128.073077,11.6829694 127.8625,12 C128.543269,11.8008734 129.108654,11.5048035 129.521154,11.2401747 L129.521154,11.2401747 L130.083654,10.8786026 L130.738462,11.0672489 C131.468269,11.2768559 132.229808,11.3842795 133,11.3842795 C136.308654,11.3842795 139,9.50305677 139,7.19213974 C139,4.88122271 136.308654,3 133,3 Z" id="path-1"></path>
    </defs>
    <g id="Article" stroke="none" stroke-width="1" fill="none" fill-rule="evenodd">
        <g id="Pixel-3-XL" transform="translate(-334.000000, -108.000000)">
            <g id="Views-Comments" transform="translate(209.000000, 107.000000)">
                <mask id="mask-2" fill="white">
                    <use xlink:href="#path-1"></use>
                </mask>
                <use id="comment" fill="#4E4E4E" fill-rule="nonzero" xlink:href="#path-1"></use>
            </g>
        </g>
    </g>
</svg>