
<svg width="22px" height="22px" viewBox="0 0 22 22" version="1.1" xmlns="http://www.w3.org/2000/svg" xmlns:xlink="http://www.w3.org/1999/xlink">
    <g id="Homepage" stroke="none" stroke-width="1" fill="none" fill-rule="evenodd">
        <g id="Home" transform="translate(-330.000000, -27.000000)" stroke="#FF0036">
            <g id="Header-HOME" transform="translate(0.000000, 19.000000)">
                <g id="Search" transform="translate(331.000000, 9.000000)">
                    <path d="M19.7280055,17.2912801 L15.8331894,13.3971292 C15.7159933,13.2799531 15.4227081,13.0197524 14.9533339,12.616527 C16.0315377,11.2377554 16.2511887,10.0107411 16.2511887,8.12420662 C16.2511887,3.63636364 12.6142039,0 8.12559434,0 C3.63698477,0 0,3.63636364 0,8.12420662 C0,12.6120496 3.63698477,16.2484132 8.12559434,16.2484132 C10.0124511,16.2484132 11.1287871,15.8469195 12.5077942,14.7688998 C12.9850137,15.3594474 13.2822215,15.7133092 13.3994176,15.8304853 L17.2942337,19.7246363 C17.6614481,20.0917879 18.2552415,20.0917879 18.6185493,19.7246363 L19.724099,18.6192755 C20.0913133,18.2521238 20.0913133,17.6584318 19.7280055,17.2912801 Z" id="Path"></path>
                    <path d="M8,13 C5.23828125,13 3,10.765625 3,8 C3,5.23828125 5.234375,3 8,3 C10.7617188,3 13,5.234375 13,8 C13,10.7617188 10.765625,13 8,13 Z" id="Path" fill="#FF0036"></path>
                </g>
            </g>
        </g>
    </g>
</svg>