
<svg width="84px" height="96px" viewBox="0 0 84 96" version="1.1" xmlns="http://www.w3.org/2000/svg" xmlns:xlink="http://www.w3.org/1999/xlink">
    <defs>
        <path d="M65.7500001,60 C61.5551563,60 57.6996778,61.4660625 54.6561524,63.9178125 L35.6401953,51.9076875 C36.2033314,49.3335758 36.2033314,46.6662367 35.6401953,44.092125 L54.6561524,32.082 C57.6996778,34.5339375 61.5551563,36 65.7500001,36 C75.5875099,36 83.5625002,27.9410625 83.5625002,18 C83.5625002,8.0589375 75.5875099,0 65.7500001,0 C55.9124903,0 47.9374998,8.0589375 47.9374998,18 C47.9374998,19.342125 48.0840821,20.649375 48.3598047,21.9076875 L29.3438476,33.9178125 C26.3003222,31.4660625 22.4448437,30 18.2499999,30 C8.41249007,30 0.437499792,38.0589375 0.437499792,48 C0.437499792,57.9410625 8.41249007,66 18.2499999,66 C22.4448437,66 26.3003222,64.5339375 29.3438476,62.0821875 L48.3598047,74.0923125 C48.0787296,75.3754634 47.9371225,76.6857887 47.9374998,78 C47.9374998,87.9410625 55.9124903,96 65.7500001,96 C75.5875099,96 83.5625002,87.9410625 83.5625002,78 C83.5625002,68.0589375 75.5875099,60 65.7500001,60 Z" id="path-1"></path>
    </defs>
    <g id="Pixel-Screen" stroke="none" stroke-width="1" fill="none" fill-rule="evenodd">
        <g id="Artboard" transform="translate(-5792.000000, -2927.000000)">
            <g id="Group-2" transform="translate(5792.000000, 2927.000000)">
                <mask id="mask-2" fill="white">
                    <use xlink:href="#path-1"></use>
                </mask>
                <g id="share-alt"></g>
                <g id="🎨-color" mask="url(#mask-2)">
                    <g transform="translate(-15.000000, 0.000000)"></g>
                </g>
                <rect id="🎨-Color" fill="#E7E7E7" mask="url(#mask-2)" x="-15" y="0" width="114" height="114"></rect>
            </g>
        </g>
    </g>
</svg>